#tb 0: 1/25
#media_type 0: video
#codec_id 0: rawvideo
#dimensions 0: 352x288
#sar 0: 0/1
0,          0,          0,        1,   114048, 0x6baa7c6d
0,          1,          1,        1,   114048, 0xc3642fac
0,          2,          2,        1,   114048, 0x98f9732e
0,          3,          3,        1,   114048, 0x6ca6d4a3
0,          4,          4,        1,   114048, 0x84ad8041
0,          5,          5,        1,   114048, 0x0703ca6b
0,          6,          6,        1,   114048, 0xca6c50eb
0,          7,          7,        1,   114048, 0x4c08d4d3
0,          8,          8,        1,   114048, 0x4dd55b2a
0,          9,          9,        1,   114048, 0xfad0c5ef
0,         10,         10,        1,   114048, 0x5efb4a94
0,         11,         11,        1,   114048, 0xa78acf53
0,         12,         12,        1,   114048, 0xe7aa76da
0,         13,         13,        1,   114048, 0xa080f010
0,         14,         14,        1,   114048, 0xa1345566
0,         15,         15,        1,   114048, 0x7621b83d
0,         16,         16,        1,   114048, 0x89542578
0,         17,         17,        1,   114048, 0x433188b4
0,         18,         18,        1,   114048, 0xb505109d
0,         19,         19,        1,   114048, 0x92588ee4
0,         20,         20,        1,   114048, 0x9a9a1c62
0,         21,         21,        1,   114048, 0xc4838f79
0,         22,         22,        1,   114048, 0x0d4cff5b
0,         23,         23,        1,   114048, 0xe8d19a47
0,         24,         24,        1,   114048, 0x3b7d3a5c
0,         25,         25,        1,   114048, 0x91dca592
0,         26,         26,        1,   114048, 0x959023d0
0,         27,         27,        1,   114048, 0x2affd380
0,         28,         28,        1,   114048, 0x098a6ea9
0,         29,         29,        1,   114048, 0x5f880cd2
0,         30,         30,        1,   114048, 0xff9f6b9a
0,         31,         31,        1,   114048, 0x189b13c9
0,         32,         32,        1,   114048, 0xae5790c4
0,         33,         33,        1,   114048, 0xbbe22e70
0,         34,         34,        1,   114048, 0xdf8dd06e
0,         35,         35,        1,   114048, 0xcf792136
0,         36,         36,        1,   114048, 0xe8ab98de
0,         37,         37,        1,   114048, 0x7b6f0eee
0,         38,         38,        1,   114048, 0x8b997e3a
0,         39,         39,        1,   114048, 0x6388008e
0,         40,         40,        1,   114048, 0xbe8f8e6d
0,         41,         41,        1,   114048, 0xb2b3170f
0,         42,         42,        1,   114048, 0xa6da9c1c
0,         43,         43,        1,   114048, 0xd27814e8
0,         44,         44,        1,   114048, 0x0ff09559
0,         45,         45,        1,   114048, 0x9d21155c
0,         46,         46,        1,   114048, 0xc56d93d7
0,         47,         47,        1,   114048, 0x6c160b33
0,         48,         48,        1,   114048, 0x75cb8824
0,         49,         49,        1,   114048, 0x7a1a05a7
